<svg width="1440" height="429" viewBox="0 0 1440 429" fill="none" xmlns="http://www.w3.org/2000/svg">
<mask id="path-1-outside-1_491_810" maskUnits="userSpaceOnUse" x="-2" y="0" width="1443" height="429" fill="black">
<rect fill="white" x="-2" width="1443" height="429"/>
<path d="M236.401 131.416C235.05 116.519 229.035 104.94 218.357 96.6789C207.814 88.2824 192.743 84.0842 173.145 84.0842C160.169 84.0842 149.356 85.777 140.705 89.1627C132.055 92.5484 125.567 97.2206 121.242 103.179C116.917 109.003 114.686 115.706 114.551 123.29C114.281 129.52 115.497 135.005 118.201 139.745C121.039 144.484 125.094 148.683 130.365 152.339C135.772 155.86 142.26 158.975 149.829 161.684C157.398 164.392 165.913 166.762 175.375 168.794L211.058 176.919C231.603 181.388 249.715 187.347 265.394 194.795C281.208 202.244 294.454 211.114 305.132 221.407C315.945 231.699 324.123 243.549 329.664 256.956C335.206 270.363 338.044 285.396 338.18 302.053C338.044 328.326 331.421 350.875 318.31 369.699C305.2 388.523 286.344 402.946 261.744 412.968C237.28 422.989 207.747 428 173.145 428C138.408 428 108.131 422.786 82.3147 412.358C56.4984 401.93 36.4266 386.085 22.0993 364.823C7.77191 343.562 0.405491 316.679 0 284.177H96.1014C96.9124 297.584 100.494 308.757 106.847 317.695C113.2 326.633 121.918 333.405 133.001 338.009C144.22 342.614 157.195 344.916 171.928 344.916C185.445 344.916 196.933 343.088 206.395 339.431C215.992 335.774 223.358 330.696 228.494 324.196C233.63 317.695 236.266 310.247 236.401 301.85C236.266 293.995 233.833 287.292 229.102 281.739C224.372 276.051 217.073 271.176 207.206 267.113C197.474 262.915 185.039 259.055 169.901 255.534L126.513 245.377C90.5597 237.116 62.2429 223.777 41.5628 205.359C20.8828 186.805 10.6103 161.751 10.7455 130.197C10.6103 104.466 17.5037 81.9174 31.4256 62.5514C45.3474 43.1854 64.6082 28.0853 89.208 17.2512C113.808 6.41707 141.854 1 173.347 1C205.516 1 233.428 6.48477 257.081 17.4543C280.87 28.2885 299.32 43.524 312.431 63.1608C325.542 82.7977 332.232 105.549 332.503 131.416H236.401ZM465.858 422.718H357.998L498.095 6.68792H631.704L771.802 422.718H663.941L566.42 111.508H563.176L465.858 422.718ZM517.058 258.988H612.634L636.569 335.368H493.174L517.058 258.988ZM816.507 422.718V6.68792H1099.95V88.3501H916.866V173.669H1081.9V255.534H916.866V422.718H816.507ZM1150.48 422.718V6.68792H1440V88.3501H1250.84V173.669H1425.2V255.534H1250.84V341.056H1440V422.718H1150.48Z"/>
</mask>
<path d="M236.401 131.416L235.405 131.506L235.488 132.416H236.401V131.416ZM218.357 96.6789L217.734 97.4612L217.745 97.4698L218.357 96.6789ZM140.705 89.1627L140.341 88.2315L140.341 88.2315L140.705 89.1627ZM121.242 103.179L122.045 103.776L122.051 103.767L121.242 103.179ZM114.551 123.29L115.55 123.334L115.551 123.321L115.551 123.308L114.551 123.29ZM118.201 139.745L117.332 140.24L117.337 140.249L117.343 140.258L118.201 139.745ZM130.365 152.339L129.795 153.161L129.807 153.169L129.82 153.177L130.365 152.339ZM149.829 161.684L150.166 160.742L149.829 161.684ZM175.375 168.794L175.597 167.818L175.585 167.816L175.375 168.794ZM211.058 176.919L210.836 177.894L210.846 177.896L211.058 176.919ZM265.394 194.795L264.965 195.699L264.968 195.7L265.394 194.795ZM305.132 221.407L304.438 222.127L304.443 222.131L305.132 221.407ZM329.664 256.956L328.74 257.338L329.664 256.956ZM338.18 302.053L339.18 302.058L339.18 302.045L338.18 302.053ZM318.31 369.699L317.49 369.127L318.31 369.699ZM261.744 412.968L261.367 412.042L261.365 412.042L261.744 412.968ZM82.3147 412.358L82.6892 411.431L82.3147 412.358ZM0 284.177V283.177H-1.01255L-0.999922 284.189L0 284.177ZM96.1014 284.177L97.0996 284.117L97.0427 283.177H96.1014V284.177ZM106.847 317.695L106.032 318.274L106.847 317.695ZM133.001 338.009L132.617 338.933L132.621 338.934L133.001 338.009ZM206.395 339.431L206.039 338.497L206.034 338.498L206.395 339.431ZM228.494 324.196L227.71 323.576L228.494 324.196ZM236.401 301.85L237.401 301.866L237.401 301.85L237.401 301.833L236.401 301.85ZM229.102 281.739L228.334 282.379L228.341 282.388L229.102 281.739ZM207.206 267.113L206.81 268.031L206.817 268.035L206.825 268.038L207.206 267.113ZM169.901 255.534L169.673 256.508L169.674 256.508L169.901 255.534ZM126.513 245.377L126.741 244.404L126.737 244.403L126.513 245.377ZM41.5628 205.359L40.895 206.103L40.8978 206.105L41.5628 205.359ZM10.7455 130.197L11.7455 130.201L11.7455 130.192L10.7455 130.197ZM31.4256 62.5514L30.6136 61.9677L31.4256 62.5514ZM89.208 17.2512L89.6111 18.1664H89.6111L89.208 17.2512ZM257.081 17.4543L256.661 18.3615L256.667 18.3644L257.081 17.4543ZM312.431 63.1608L313.263 62.6055L312.431 63.1608ZM332.503 131.416V132.416H333.513L333.503 131.405L332.503 131.416ZM465.858 422.718V423.718H466.594L466.813 423.017L465.858 422.718ZM357.998 422.718L357.05 422.399L356.606 423.718H357.998V422.718ZM498.095 6.68792V5.68792H497.377L497.147 6.36878L498.095 6.68792ZM631.704 6.68792L632.652 6.36878L632.423 5.68792H631.704V6.68792ZM771.802 422.718V423.718H773.193L772.749 422.399L771.802 422.718ZM663.941 422.718L662.987 423.017L663.206 423.718H663.941V422.718ZM566.42 111.508L567.375 111.209L567.155 110.508H566.42V111.508ZM563.176 111.508V110.508H562.441L562.222 111.21L563.176 111.508ZM517.058 258.988V257.988H516.323L516.104 258.689L517.058 258.988ZM612.634 258.988L613.589 258.689L613.369 257.988H612.634V258.988ZM636.569 335.368V336.368H637.93L637.523 335.069L636.569 335.368ZM493.174 335.368L492.219 335.07L491.813 336.368H493.174V335.368ZM816.507 422.718H815.507V423.718H816.507V422.718ZM816.507 6.68792V5.68792H815.507V6.68792H816.507ZM1099.95 6.68792H1100.95V5.68792H1099.95V6.68792ZM1099.95 88.3501V89.3501H1100.95V88.3501H1099.95ZM916.866 88.3501V87.3501H915.866V88.3501H916.866ZM916.866 173.669H915.866V174.669H916.866V173.669ZM1081.9 173.669H1082.9V172.669H1081.9V173.669ZM1081.9 255.534V256.534H1082.9V255.534H1081.9ZM916.866 255.534V254.534H915.866V255.534H916.866ZM916.866 422.718V423.718H917.866V422.718H916.866ZM1150.48 422.718H1149.48V423.718H1150.48V422.718ZM1150.48 6.68792V5.68792H1149.48V6.68792H1150.48ZM1440 6.68792H1441V5.68792H1440V6.68792ZM1440 88.3501V89.3501H1441V88.3501H1440ZM1250.84 88.3501V87.3501H1249.84V88.3501H1250.84ZM1250.84 173.669H1249.84V174.669H1250.84V173.669ZM1425.2 173.669H1426.2V172.669H1425.2V173.669ZM1425.2 255.534V256.534H1426.2V255.534H1425.2ZM1250.84 255.534V254.534H1249.84V255.534H1250.84ZM1250.84 341.056H1249.84V342.056H1250.84V341.056ZM1440 341.056H1441V340.056H1440V341.056ZM1440 422.718V423.718H1441V422.718H1440ZM237.397 131.325C236.023 116.185 229.892 104.338 218.969 95.888L217.745 97.4698C228.178 105.541 234.076 116.853 235.405 131.506L237.397 131.325ZM218.98 95.8967C208.195 87.3077 192.87 83.0842 173.145 83.0842V85.0842C192.617 85.0842 207.433 89.2572 217.734 97.4611L218.98 95.8967ZM173.145 83.0842C160.09 83.0842 149.144 84.7862 140.341 88.2315L141.07 90.0939C149.568 86.7679 160.248 85.0842 173.145 85.0842V83.0842ZM140.341 88.2315C131.559 91.6687 124.896 96.4425 120.433 102.592L122.051 103.767C126.238 97.9987 132.551 93.428 141.07 90.0939L140.341 88.2315ZM120.439 102.583C115.983 108.582 113.69 115.49 113.551 123.272L115.551 123.308C115.683 115.923 117.85 109.423 122.045 103.776L120.439 102.583ZM113.552 123.247C113.275 129.637 114.523 135.314 117.332 140.24L119.069 139.249C116.472 134.695 115.287 129.402 115.55 123.334L113.552 123.247ZM117.343 140.258C120.265 145.138 124.426 149.436 129.795 153.161L130.935 151.518C125.762 147.929 121.813 143.831 119.059 139.231L117.343 140.258ZM129.82 153.177C135.305 156.75 141.867 159.896 149.492 162.625L150.166 160.742C142.653 158.054 136.239 154.971 130.911 151.501L129.82 153.177ZM149.492 162.625C157.11 165.351 165.669 167.732 175.165 169.771L175.585 167.816C166.158 165.792 157.686 163.433 150.166 160.742L149.492 162.625ZM175.153 169.769L210.836 177.894L211.28 175.944L175.597 167.818L175.153 169.769ZM210.846 177.896C231.331 182.352 249.368 188.289 264.965 195.699L265.823 193.892C250.062 186.405 231.875 180.424 211.271 175.942L210.846 177.896ZM264.968 195.7C280.7 203.11 293.851 211.922 304.438 222.127L305.826 220.687C295.057 210.306 281.716 201.378 265.82 193.891L264.968 195.7ZM304.443 222.131C315.157 232.33 323.253 244.064 328.74 257.338L330.588 256.574C324.992 243.034 316.733 231.068 305.821 220.682L304.443 222.131ZM328.74 257.338C334.226 270.611 337.045 285.513 337.18 302.061L339.18 302.045C339.043 285.278 336.186 270.116 330.588 256.574L328.74 257.338ZM337.18 302.048C337.045 328.149 330.469 350.493 317.49 369.127L319.131 370.27C332.374 351.256 339.043 328.503 339.18 302.058L337.18 302.048ZM317.49 369.127C304.506 387.769 285.817 402.081 261.367 412.042L262.122 413.894C286.872 403.811 305.893 389.277 319.131 370.27L317.49 369.127ZM261.365 412.042C237.052 422.002 207.655 427 173.145 427V429C207.838 429 237.508 423.977 262.124 413.893L261.365 412.042ZM173.145 427C138.505 427 108.361 421.8 82.6892 411.431L81.9401 413.285C107.901 423.772 138.31 429 173.145 429V427ZM82.6892 411.431C57.0412 401.071 37.1348 385.347 22.9286 364.265L21.27 365.382C35.7184 386.824 55.9556 402.79 81.9401 413.285L82.6892 411.431ZM22.9286 364.265C8.73589 343.203 1.40363 316.524 0.999922 284.164L-0.999922 284.189C-0.592649 316.835 6.80793 343.92 21.27 365.382L22.9286 364.265ZM0 285.177H96.1014V283.177H0V285.177ZM95.1032 284.237C95.9229 297.789 99.5487 309.153 106.032 318.274L107.662 317.116C101.44 308.361 97.9018 297.379 97.0996 284.117L95.1032 284.237ZM106.032 318.274C112.503 327.38 121.378 334.263 132.617 338.933L133.385 337.086C122.458 332.546 113.896 325.887 107.662 317.116L106.032 318.274ZM132.621 338.934C143.983 343.598 157.092 345.916 171.928 345.916V343.916C157.298 343.916 144.456 341.63 133.381 337.084L132.621 338.934ZM171.928 345.916C185.529 345.916 197.148 344.077 206.755 340.364L206.034 338.498C196.719 342.098 185.36 343.916 171.928 343.916V345.916ZM206.751 340.365C216.476 336.66 224.007 331.488 229.279 324.815L227.71 323.576C222.709 329.904 215.507 334.889 206.039 338.497L206.751 340.365ZM229.279 324.815C234.553 318.14 237.263 310.479 237.401 301.866L235.401 301.834C235.27 310.014 232.708 317.25 227.71 323.576L229.279 324.815ZM237.401 301.833C237.262 293.766 234.757 286.834 229.864 281.091L228.341 282.388C232.91 287.75 235.27 294.225 235.401 301.867L237.401 301.833ZM229.871 281.1C225 275.244 217.542 270.288 207.587 266.189L206.825 268.038C216.604 272.064 223.743 276.859 228.334 282.379L229.871 281.1ZM207.602 266.195C197.797 261.965 185.299 258.089 170.127 254.56L169.674 256.508C184.779 260.021 197.152 263.865 206.81 268.031L207.602 266.195ZM170.129 254.561L126.741 244.404L126.285 246.351L169.673 256.508L170.129 254.561ZM126.737 244.403C90.8951 236.167 62.7476 222.887 42.2279 204.612L40.8978 206.105C61.7382 224.666 90.2243 238.065 126.289 246.352L126.737 244.403ZM42.2306 204.614C21.7932 186.279 11.6114 161.513 11.7455 130.201L9.74552 130.193C9.60932 161.99 19.9724 187.332 40.895 206.103L42.2306 204.614ZM11.7455 130.192C11.6114 104.654 18.4489 82.3158 32.2375 63.1351L30.6136 61.9677C16.5585 81.519 9.60935 104.278 9.74553 130.202L11.7455 130.192ZM32.2375 63.1351C46.0424 43.9318 65.1535 28.9378 89.6111 18.1664L88.805 16.336C64.063 27.2328 44.6525 42.4389 30.6136 61.9677L32.2375 63.1351ZM89.6111 18.1664C114.064 7.39695 141.97 2 173.347 2V0C141.739 0 113.552 5.43718 88.805 16.336L89.6111 18.1664ZM173.347 2C205.404 2 233.166 7.46567 256.661 18.3615L257.502 16.5471C233.689 5.50388 205.629 0 173.347 0V2ZM256.667 18.3644C280.305 29.1299 298.603 44.2503 311.599 63.7161L313.263 62.6055C300.037 42.7976 281.435 27.447 257.496 16.5443L256.667 18.3644ZM311.599 63.7161C324.592 83.1762 331.234 105.735 331.503 131.426L333.503 131.405C333.23 105.364 326.491 82.4191 313.263 62.6055L311.599 63.7161ZM332.503 130.416H236.401V132.416H332.503V130.416ZM465.858 421.718H357.998V423.718H465.858V421.718ZM358.946 423.038L499.043 7.00706L497.147 6.36878L357.05 422.399L358.946 423.038ZM498.095 7.68792H631.704V5.68792H498.095V7.68792ZM630.757 7.00706L770.854 423.038L772.749 422.399L632.652 6.36878L630.757 7.00706ZM771.802 421.718H663.941V423.718H771.802V421.718ZM664.895 422.419L567.375 111.209L565.466 111.807L662.987 423.017L664.895 422.419ZM566.42 110.508H563.176V112.508H566.42V110.508ZM562.222 111.21L464.904 422.42L466.813 423.017L564.131 111.807L562.222 111.21ZM517.058 259.988H612.634V257.988H517.058V259.988ZM611.68 259.287L635.615 335.667L637.523 335.069L613.589 258.689L611.68 259.287ZM636.569 334.368H493.174V336.368H636.569V334.368ZM494.128 335.667L518.013 259.286L516.104 258.689L492.219 335.07L494.128 335.667ZM817.507 422.718V6.68792H815.507V422.718H817.507ZM816.507 7.68792H1099.95V5.68792H816.507V7.68792ZM1098.95 6.68792V88.3501H1100.95V6.68792H1098.95ZM1099.95 87.3501H916.866V89.3501H1099.95V87.3501ZM915.866 88.3501V173.669H917.866V88.3501H915.866ZM916.866 174.669H1081.9V172.669H916.866V174.669ZM1080.9 173.669V255.534H1082.9V173.669H1080.9ZM1081.9 254.534H916.866V256.534H1081.9V254.534ZM915.866 255.534V422.718H917.866V255.534H915.866ZM916.866 421.718H816.507V423.718H916.866V421.718ZM1151.48 422.718V6.68792H1149.48V422.718H1151.48ZM1150.48 7.68792H1440V5.68792H1150.48V7.68792ZM1439 6.68792V88.3501H1441V6.68792H1439ZM1440 87.3501H1250.84V89.3501H1440V87.3501ZM1249.84 88.3501V173.669H1251.84V88.3501H1249.84ZM1250.84 174.669H1425.2V172.669H1250.84V174.669ZM1424.2 173.669V255.534H1426.2V173.669H1424.2ZM1425.2 254.534H1250.84V256.534H1425.2V254.534ZM1249.84 255.534V341.056H1251.84V255.534H1249.84ZM1250.84 342.056H1440V340.056H1250.84V342.056ZM1439 341.056V422.718H1441V341.056H1439ZM1440 421.718H1150.48V423.718H1440V421.718Z" fill="white" fill-opacity="0.3" mask="url(#path-1-outside-1_491_810)"/>
</svg>
